<mxfile host="app.diagrams.net" agent="Mozilla/5.0 (Windows NT 10.0; Win64; x64) AppleWebKit/537.36 (KHTML, like Gecko) Chrome/131.0.0.0 Safari/537.36" version="24.7.14">
  <diagram id="R2lEEEUBdFMjLlhIrx00" name="Page-1">
    <mxGraphModel dx="1385" dy="627" grid="1" gridSize="10" guides="1" tooltips="1" connect="1" arrows="1" fold="1" page="1" pageScale="1" pageWidth="850" pageHeight="1100" math="0" shadow="0" extFonts="Permanent Marker^https://fonts.googleapis.com/css?family=Permanent+Marker">
      <root>
        <mxCell id="0" />
        <mxCell id="1" parent="0" />
        <mxCell id="TX-KJzdsc7qopipzYaIi-85" value="" style="rounded=0;whiteSpace=wrap;html=1;" vertex="1" parent="1">
          <mxGeometry x="305" y="440" width="190" height="550" as="geometry" />
        </mxCell>
        <mxCell id="TX-KJzdsc7qopipzYaIi-76" style="edgeStyle=orthogonalEdgeStyle;rounded=0;orthogonalLoop=1;jettySize=auto;html=1;entryX=0;entryY=0.5;entryDx=0;entryDy=0;" edge="1" parent="1" source="TX-KJzdsc7qopipzYaIi-70" target="TX-KJzdsc7qopipzYaIi-73">
          <mxGeometry relative="1" as="geometry">
            <Array as="points">
              <mxPoint x="250" y="640" />
              <mxPoint x="250" y="540" />
            </Array>
          </mxGeometry>
        </mxCell>
        <mxCell id="TX-KJzdsc7qopipzYaIi-82" style="edgeStyle=orthogonalEdgeStyle;rounded=0;orthogonalLoop=1;jettySize=auto;html=1;entryX=0;entryY=0.5;entryDx=0;entryDy=0;" edge="1" parent="1" source="TX-KJzdsc7qopipzYaIi-70" target="TX-KJzdsc7qopipzYaIi-80">
          <mxGeometry relative="1" as="geometry" />
        </mxCell>
        <mxCell id="TX-KJzdsc7qopipzYaIi-88" style="edgeStyle=orthogonalEdgeStyle;rounded=0;orthogonalLoop=1;jettySize=auto;html=1;entryX=0;entryY=0.5;entryDx=0;entryDy=0;" edge="1" parent="1" source="TX-KJzdsc7qopipzYaIi-70" target="TX-KJzdsc7qopipzYaIi-87">
          <mxGeometry relative="1" as="geometry" />
        </mxCell>
        <mxCell id="TX-KJzdsc7qopipzYaIi-70" value="USER" style="shape=umlActor;verticalLabelPosition=bottom;verticalAlign=top;html=1;outlineConnect=0;" vertex="1" parent="1">
          <mxGeometry x="130" y="610" width="30" height="60" as="geometry" />
        </mxCell>
        <mxCell id="TX-KJzdsc7qopipzYaIi-73" value="Picture Recommendation" style="ellipse;whiteSpace=wrap;html=1;" vertex="1" parent="1">
          <mxGeometry x="340" y="500" width="120" height="80" as="geometry" />
        </mxCell>
        <mxCell id="TX-KJzdsc7qopipzYaIi-74" value="API" style="shape=umlActor;verticalLabelPosition=bottom;verticalAlign=top;html=1;outlineConnect=0;" vertex="1" parent="1">
          <mxGeometry x="660" y="430" width="30" height="60" as="geometry" />
        </mxCell>
        <mxCell id="TX-KJzdsc7qopipzYaIi-75" style="edgeStyle=orthogonalEdgeStyle;rounded=0;orthogonalLoop=1;jettySize=auto;html=1;entryX=0;entryY=0.3333333333333333;entryDx=0;entryDy=0;entryPerimeter=0;" edge="1" parent="1" source="TX-KJzdsc7qopipzYaIi-73" target="TX-KJzdsc7qopipzYaIi-74">
          <mxGeometry relative="1" as="geometry" />
        </mxCell>
        <mxCell id="TX-KJzdsc7qopipzYaIi-83" style="edgeStyle=orthogonalEdgeStyle;rounded=0;orthogonalLoop=1;jettySize=auto;html=1;" edge="1" parent="1" source="TX-KJzdsc7qopipzYaIi-80" target="TX-KJzdsc7qopipzYaIi-81">
          <mxGeometry relative="1" as="geometry" />
        </mxCell>
        <mxCell id="TX-KJzdsc7qopipzYaIi-84" style="edgeStyle=orthogonalEdgeStyle;rounded=0;orthogonalLoop=1;jettySize=auto;html=1;" edge="1" parent="1" source="TX-KJzdsc7qopipzYaIi-80">
          <mxGeometry relative="1" as="geometry">
            <mxPoint x="560" y="470" as="targetPoint" />
          </mxGeometry>
        </mxCell>
        <mxCell id="TX-KJzdsc7qopipzYaIi-80" value="Login" style="ellipse;whiteSpace=wrap;html=1;" vertex="1" parent="1">
          <mxGeometry x="340" y="650" width="120" height="80" as="geometry" />
        </mxCell>
        <mxCell id="TX-KJzdsc7qopipzYaIi-81" value="Google AUthentication&lt;div&gt;&lt;br&gt;&lt;/div&gt;" style="shape=umlActor;verticalLabelPosition=bottom;verticalAlign=top;html=1;outlineConnect=0;" vertex="1" parent="1">
          <mxGeometry x="660" y="660" width="30" height="60" as="geometry" />
        </mxCell>
        <mxCell id="TX-KJzdsc7qopipzYaIi-87" value="Infinite Scroll" style="ellipse;whiteSpace=wrap;html=1;" vertex="1" parent="1">
          <mxGeometry x="340" y="790" width="120" height="80" as="geometry" />
        </mxCell>
        <mxCell id="TX-KJzdsc7qopipzYaIi-89" value="React" style="shape=umlActor;verticalLabelPosition=bottom;verticalAlign=top;html=1;outlineConnect=0;" vertex="1" parent="1">
          <mxGeometry x="660" y="820" width="30" height="60" as="geometry" />
        </mxCell>
        <mxCell id="TX-KJzdsc7qopipzYaIi-90" style="edgeStyle=orthogonalEdgeStyle;rounded=0;orthogonalLoop=1;jettySize=auto;html=1;entryX=0.5;entryY=0.5;entryDx=0;entryDy=0;entryPerimeter=0;" edge="1" parent="1" source="TX-KJzdsc7qopipzYaIi-87" target="TX-KJzdsc7qopipzYaIi-89">
          <mxGeometry relative="1" as="geometry" />
        </mxCell>
      </root>
    </mxGraphModel>
  </diagram>
</mxfile>
